<?xml version="1.0" encoding="iso-8859-1"?>
<!-- Generator: Adobe Illustrator 19.0.0, SVG Export Plug-In . SVG Version: 6.00 Build 0)  -->
<svg version="1.1" id="Layer_1" xmlns="http://www.w3.org/2000/svg" xmlns:xlink="http://www.w3.org/1999/xlink" x="0px" y="0px"
	 viewBox="0 0 507.766 507.766" style="enable-background:new 0 0 507.766 507.766;" xml:space="preserve">
<path style="fill:#E57373;" d="M252.083,218.8l-70-115.2c-0.4-0.4-0.4-0.8-0.4-1.2c2.4-37.6,34-67.2,72-67.2c38.4,0,70,30,72,68
	c0,0.4,0,0.8-0.4,1.2l-68.8,113.2l17.6,28.8l80-131.6c2-3.2,2.4-7.2,1.6-10.8c-2-55.6-46.8-98.8-102-98.8
	c-55.6,0-101.6,45.2-102,101.2c0,3.2,0.4,6,2,8.8l82,134.4l0,0l24,39.2c0.4,0.4,0.4,1.2,0.4,1.6l114.4,210l43.2-26.4l-145.2-222.4
	c-0.4-0.4-0.4-0.8-0.4-1.2L252.083,218.8C252.483,219.2,252.083,218.8,252.083,218.8z"/>
<polygon style="fill:#EF5350;" points="91.683,477.6 128.883,500.4 251.683,284 233.683,254.4 "/>
<g>
	<path style="fill:#FFCDD2;" d="M233.683,254.4l18,29.6l0.4-0.8c0.4-0.4,0.8-0.4,1.2-0.4l-18.4-30.4L233.683,254.4z"/>
	<path style="fill:#FFCDD2;" d="M259.283,289.2l-24-39.2c0.4,0.8,0.4,1.6,0,2l-0.4,0.8l18.4,31.6l0.4,1.2l0,0c0.8,0,1.2-1.6,1.6-0.8
		l4,6.8C259.683,290.8,259.683,289.6,259.283,289.2z"/>
	<path style="fill:#FFCDD2;" d="M256.083,217.6l-0.8,1.2c0,0.4-0.4,0.4-0.4,0.4l18,29.2l1.2-2L256.083,217.6z"/>
	<path style="fill:#FFCDD2;" d="M253.683,219.6c-0.4,0-0.8-0.4-1.2-0.4l19.2,31.6c0-0.4,0-0.8,0.4-1.2l0.8-1.2l-18-29.2
		C254.483,219.6,254.083,219.6,253.683,219.6z"/>
</g>
<path d="M257.683,294c-1.2,0-2.8-0.8-3.6-2l-27.6-45.2c-1.2-2-0.4-4.4,1.2-5.6c2-1.2,4.4-0.4,5.6,1.2l27.6,45.2
	c1.2,2,0.4,4.4-1.2,5.6C259.283,294,258.483,294,257.683,294z"/>
<path d="M279.283,262.8c-1.2,0-2.8-0.8-3.6-2l-27.6-45.2c-1.2-2-0.4-4.4,1.2-5.6s4.4-0.4,5.6,1.2l27.6,45.2c1.2,2,0.4,4.4-1.2,5.6
	C280.483,262.8,280.083,262.8,279.283,262.8z"/>
<path d="M373.283,507.2c-0.4,0-0.8,0-1.2,0c-1.2-0.4-2-0.8-2.4-2l-116-213.2l-120.4,213.6c-0.4,0.8-1.6,1.6-2.4,2
	c-1.2,0.4-2,0-3.2-0.4l-40.8-24.8c-0.8-0.4-1.6-1.6-2-2.4c-0.4-1.2,0-2,0.4-3.2l143.6-225.6l-80.8-132.4c-2.4-3.6-3.2-8-3.2-12
	c0.4-58.8,49.2-106.8,108-106.8c58.4,0,106,45.6,108,104c1.2,5.2,0.4,10.4-2.4,15.2l-80.8,132.4l144.8,222c0.4,0.8,0.8,2,0.4,3.2
	c-0.4,1.2-0.8,2-2,2.4l-46.8,28.4C374.883,507.2,374.083,507.2,373.283,507.2z M94.483,477.2l34,20.4l122-216c0.8-1.2,2-2,3.6-2
	s2.8,0.8,3.6,2l117.6,216l39.6-24l-144-220.8c-0.8-1.2-0.8-2.8,0-4.4l82-134.4c1.6-2.8,2-6,1.6-9.6c0-0.4,0-0.4,0-0.8
	c-2-54-46-96.4-100-96.4c-54.8,0-99.6,44.4-100,99.2c0,2.8,0.4,5.6,2,7.6l82,134.4c0.8,1.2,0.8,2.8,0,4.4L94.483,477.2z
	 M253.683,221.6c-1.2,0-2.8-0.8-3.6-2l-70-115.2c-0.4-0.8-0.8-1.6-0.4-2.4c2.4-38.8,34.8-69.2,74-69.2l0,0c39.2,0,71.6,30.8,74,70
	c0,0.8,0,1.6-0.4,2.4l-69.6,114.4C256.483,221.2,255.283,221.6,253.683,221.6z M187.683,101.6l66,108.4l65.6-107.6
	c-2.4-34.4-31.2-61.2-66-61.2l0,0C219.283,41.2,190.483,67.6,187.683,101.6z"/>
<g>
</g>
<g>
</g>
<g>
</g>
<g>
</g>
<g>
</g>
<g>
</g>
<g>
</g>
<g>
</g>
<g>
</g>
<g>
</g>
<g>
</g>
<g>
</g>
<g>
</g>
<g>
</g>
<g>
</g>
</svg>
