<svg xmlns="http://www.w3.org/2000/svg" viewBox="0 0 240 240"><defs><style>.cls-1,.cls-3{fill:#070;}.cls-1{opacity:0.23;}.cls-2{fill:#006605;}.cls-4{fill:#044900;}.cls-5{fill:#4f9e4a;}.cls-6{fill:#fff;}</style></defs><title>Asset 3</title><g id="Layer_2" data-name="Layer 2"><g id="Layer_1-2" data-name="Layer 1"><rect class="cls-1" width="240" height="240" rx="9.15"/><path class="cls-2" d="M125.59,161.15a9.71,9.71,0,0,1-19.42,0h-12V173.4a12.27,12.27,0,0,1-12.28,12.15h48.56a12.21,12.21,0,0,0,12.2-12.15V161.15Z"/><rect class="cls-3" x="43.04" y="71.43" width="150.53" height="89.83"/><rect class="cls-4" x="43.09" y="71.47" width="22.24" height="91.42"/><rect class="cls-4" x="72.74" y="71.47" width="9.88" height="91.42"/><rect class="cls-4" x="90.04" y="71.47" width="4.94" height="91.42"/><rect class="cls-5" x="40.62" y="150.94" width="152.96" height="10.32"/><rect class="cls-6" x="132.83" y="169.11" width="4.75" height="4.75"/><rect class="cls-6" x="140.12" y="169.11" width="4.75" height="4.75"/><rect class="cls-6" x="147.41" y="169.11" width="5.07" height="4.75"/><rect class="cls-6" x="154.69" y="169.11" width="4.75" height="4.75"/><path d="M196,69H40.62v94.69h51v9.71A9.58,9.58,0,0,1,81.89,183H69.77v4.76h60.68a14.24,14.24,0,0,0,14.42-14.37v-9.71H196ZM140.12,173.4a9.55,9.55,0,0,1-9.67,9.62H92.66a14.26,14.26,0,0,0,3.73-9.62v-9.71H104a12.14,12.14,0,0,0,23.74,0h12.37v9.71ZM109,163.69h13.68a7.31,7.31,0,0,1-13.68,0Zm-63.57-4.86v-5h82.61v-4.75H45.47V73.86H191.14v75.25H164.52v4.75h26.62v5Z"/><rect class="cls-6" x="117.05" y="88.36" width="5.48" height="4.84"/><rect class="cls-6" x="181.55" y="93.19" width="4.84" height="32.57"/><rect class="cls-6" x="181.55" y="130.6" width="4.84" height="9.67"/><rect class="cls-6" x="181.55" y="145.44" width="4.84" height="4.84"/></g></g></svg>