<svg xmlns="http://www.w3.org/2000/svg" viewBox="0 0 240 240"><defs><style>.cls-1{opacity:0.19;}.cls-2{fill:#24f200;}.cls-3{fill:#0dce1f;}.cls-4{fill:#1ca807;}.cls-5{fill:#329b2f;}.cls-6{fill:#f7f7f7;}.cls-7{fill:#d1d7db;}.cls-8{fill:#1d2328;}</style></defs><title>Asset 1</title><g id="Layer_2" data-name="Layer 2"><g id="Layer_1-2" data-name="Layer 1"><g class="cls-1"><rect class="cls-2" width="240" height="240" rx="15.94"/></g><polygon class="cls-3" points="114.2 143.16 114.2 131.05 141.48 131.05 141.48 152.77 114.2 143.16"/><g class="cls-1"><rect class="cls-4" x="114.2" y="143.16" width="37.8" height="35.92"/></g><path class="cls-5" d="M128.06,82.29H111.43V95.64l16.63-.1a11.85,11.85,0,0,1,11.84,11.83v79.19l13.25-8.68V107.37A25.08,25.08,0,0,0,128.06,82.29Z"/><rect class="cls-6" x="94.91" y="104.44" width="19.43" height="11.31"/><rect class="cls-7" x="95.51" y="41.36" width="18.58" height="16.26"/><rect class="cls-5" x="90.87" y="51.19" width="26.8" height="53.26"/><path class="cls-5" d="M152.5,170.91A13.93,13.93,0,1,1,166.43,157,13.93,13.93,0,0,1,152.5,170.91Z"/><path class="cls-5" d="M52.05,179.34A9.67,9.67,0,0,0,42.38,189l110.43.16v-9.83Z"/><path class="cls-8" d="M91.12,43.88h26.71a2.44,2.44,0,0,0,0-4.88H91.12a2.44,2.44,0,1,0,0,4.88Z"/><path class="cls-8" d="M162.46,186.93H155V172.57a16.1,16.1,0,0,0,0-31.82V106.93A27.55,27.55,0,0,0,127.44,79.4h-7.17V51.19a2.45,2.45,0,0,0-2.44-2.44H91.12a2.45,2.45,0,0,0-2.44,2.44V102h-.81a2.44,2.44,0,1,0,0,4.87h4.45v8.88a2.44,2.44,0,0,0,2.44,2.44h19.43a2.44,2.44,0,0,0,2.44-2.44v-8.88h4.45a2.44,2.44,0,1,0,0-4.87h-.81V84.28h7.17a22.67,22.67,0,0,1,22.65,22.65v33.82a16.1,16.1,0,0,0,0,31.82v14.36H45a7.25,7.25,0,0,1,6.8-4.79h91a2.44,2.44,0,1,0,0-4.87H116.63V134.46h20.21v.81a2.44,2.44,0,0,0,4.88,0V106.93a14.3,14.3,0,0,0-14.28-14.28,2.44,2.44,0,0,0,0,4.88,9.41,9.41,0,0,1,9.4,9.4v22.65h-59a2.44,2.44,0,1,0,0,4.87h34v32.72h-17a2.44,2.44,0,0,0,0,4.88h17v5.22h-60a12.12,12.12,0,0,0-12.1,12.1,2.44,2.44,0,0,0,2.44,2.44H162.46a2.44,2.44,0,1,0,0-4.88Zm-50.71-73.61H97.2v-6.44h14.55ZM93.56,102V53.63h21.83V102Zm47.75,54.65a11.22,11.22,0,0,1,11.21-11.21h0a11.22,11.22,0,1,1-11.22,11.21Z"/></g></g></svg>