<svg xmlns="http://www.w3.org/2000/svg" viewBox="0 0 166.69 166.69"><defs><style>.cls-1{fill:#097c1f;}</style></defs><title>Asset 3</title><g id="Layer_2" data-name="Layer 2"><g id="Layer_1-2" data-name="Layer 1"><path class="cls-1" d="M112.24,152.41a65.85,65.85,0,0,0,6.93-8.9L113.62,138c-5.69,9.12-12.51,15.43-19.86,18.5a85.59,85.59,0,0,0,4.77-16.43c.22-1.12.44-2.27.65-3.43A55,55,0,0,1,91,138.43c-2.92,14.35-6,18.59-7.23,19.77h-.93c-1.23-1.17-4.3-5.41-7.22-19.71a55.9,55.9,0,0,1-8.13-1.74c.2,1.12.42,2.22.63,3.3a85.59,85.59,0,0,0,4.77,16.43c-7.54-3.15-14.52-9.69-20.29-19.19-1.28-2.11-2.46-4.33-3.57-6.64q4.14,1.17,8.48,2a55.6,55.6,0,0,1-23.63-23.93c.6,3,1.3,6,2.12,8.85-2.31-1.11-4.53-2.29-6.64-3.57-9.5-5.77-16-12.75-19.19-20.29a85.59,85.59,0,0,0,16.43,4.77c1.13.23,2.3.45,3.48.66a55.71,55.71,0,0,1-1.71-8.12c-14.48-2.93-18.74-6-19.93-7.26v-.93c1.19-1.24,5.48-4.35,20.06-7.29a55.26,55.26,0,0,1,1.86-8.14c-1.28.23-2.54.47-3.76.71a85.59,85.59,0,0,0-16.43,4.77c3.14-7.54,9.69-14.52,19.19-20.29,2.11-1.28,4.33-2.46,6.64-3.57-.94,3.33-1.74,6.77-2.39,10.28A55.56,55.56,0,0,1,60.49,33.44c-3.91.69-7.73,1.56-11.42,2.6a74.85,74.85,0,0,1,3.57-6.64c5.77-9.5,12.75-16,20.29-19.19a85.59,85.59,0,0,0-4.77,16.43c-.28,1.37-.54,2.79-.8,4.23a54.79,54.79,0,0,1,8.12-1.76c3-15,6.14-19.42,7.4-20.62h.93c1.26,1.2,4.44,5.6,7.41,20.67A55.09,55.09,0,0,1,99.35,31c-.27-1.49-.54-2.95-.82-4.36a85.59,85.59,0,0,0-4.77-16.43c7.54,3.15,14.52,9.69,20.29,19.19A74.85,74.85,0,0,1,117.62,36a117.26,117.26,0,0,0-12.07-2.71,55.51,55.51,0,0,1,27.73,27.34,115.23,115.23,0,0,0-2.63-11.6,74.85,74.85,0,0,1,6.64,3.57c9.5,5.77,16.05,12.75,19.19,20.29a85.59,85.59,0,0,0-16.43-4.77c-1.35-.27-2.75-.53-4.18-.79a55.28,55.28,0,0,1,1.87,8.14c14.91,3,19.27,6.12,20.47,7.37v.93c-1.2,1.25-5.54,4.39-20.34,7.34a53,53,0,0,1-1.72,8.12c1.33-.24,2.64-.49,3.9-.74a85.59,85.59,0,0,0,16.43-4.77c-3.15,7.54-9.69,14.52-19.19,20.29-1,.62-2.06,1.21-3.14,1.79l5.65,5.62c.49-.28,1-.57,1.47-.87a67.71,67.71,0,0,0,11.14-8.35,74.92,74.92,0,0,1-7.77,14l6.08,6.06a83.39,83.39,0,1,0-21.88,20.8L122.68,147A74.11,74.11,0,0,1,112.24,152.41Zm40.17-98a67.71,67.71,0,0,0-11.14-8.35,88.12,88.12,0,0,0-13.88-6.8,88.12,88.12,0,0,0-6.8-13.88,67.71,67.71,0,0,0-8.35-11.14A75.36,75.36,0,0,1,152.41,54.45Zm-98-40.17A67.71,67.71,0,0,0,46.1,25.42,88.12,88.12,0,0,0,39.3,39.3a88.12,88.12,0,0,0-13.88,6.8,67.71,67.71,0,0,0-11.14,8.35A75.36,75.36,0,0,1,54.45,14.28Zm-40.17,98a67.71,67.71,0,0,0,11.14,8.35,88.54,88.54,0,0,0,13.88,6.8,88.12,88.12,0,0,0,6.8,13.88,67.71,67.71,0,0,0,8.35,11.14A75.36,75.36,0,0,1,14.28,112.24Z"/><path class="cls-1" d="M120.71,113.1a47.69,47.69,0,1,0-11.06,10.29l36.45,36.3A7.55,7.55,0,0,0,156.75,149ZM50.57,83.79a32.58,32.58,0,1,1,32.57,32.57A32.61,32.61,0,0,1,50.57,83.79Z"/><path class="cls-1" d="M102.05,78.09H89.42V65.46a5.72,5.72,0,0,0-11.43,0V78.09H65.36a5.71,5.71,0,0,0,0,11.42H78v12.63a5.72,5.72,0,0,0,11.43,0V89.51h12.63a5.71,5.71,0,0,0,0-11.42Z"/></g></g></svg>