<svg xmlns="http://www.w3.org/2000/svg" viewBox="0 0 240 240"><defs><style>.cls-1{opacity:0.19;}.cls-2{fill:#ff0;}.cls-3{fill:#1d2328;}.cls-4{opacity:0.66;}.cls-5{fill:#9ea508;}.cls-6{fill:#fff200;}.cls-7{fill:#cccc0e;}.cls-8{fill:#666804;}.cls-9{fill:#fff;}</style></defs><title>Asset 2</title><g id="Layer_2" data-name="Layer 2"><g id="Layer_1-2" data-name="Layer 1"><g class="cls-1"><rect class="cls-2" width="240" height="240" rx="9.8"/></g><path class="cls-3" d="M168.69,198.52A2.49,2.49,0,0,1,166.2,201H73.5a2.49,2.49,0,0,1,0-5h30.62V168.72a2.49,2.49,0,0,1,5,0V196h21.52V168.72a2.49,2.49,0,0,1,5,0V196H166.2A2.5,2.5,0,0,1,168.69,198.52Z"/><path class="cls-3" d="M182.76,171.2H57A13.25,13.25,0,0,1,43.7,158V75.19A13.24,13.24,0,0,1,57,62H182.76A13.24,13.24,0,0,1,196,75.19V158A13.24,13.24,0,0,1,182.76,171.2Z"/><g class="cls-4"><path class="cls-5" d="M182.76,164.58H57A6.62,6.62,0,0,1,50.32,158V75.19A6.62,6.62,0,0,1,57,68.57H182.76a6.62,6.62,0,0,1,6.62,6.62V158A6.62,6.62,0,0,1,182.76,164.58Z"/></g><path class="cls-6" d="M159.58,144.72h-29.8V55.32a6.63,6.63,0,0,1,6.62-6.62H153a6.62,6.62,0,0,1,6.62,6.62Z"/><path class="cls-7" d="M136.4,144.72H106.61V85.12a6.62,6.62,0,0,1,6.62-6.62h16.55a6.62,6.62,0,0,1,6.62,6.62v59.6Z"/><path class="cls-8" d="M113.23,144.72H83.43v-29.8a6.62,6.62,0,0,1,6.62-6.62h16.56a6.62,6.62,0,0,1,6.62,6.62Z"/><path class="cls-9" d="M167.27,145.54a2.5,2.5,0,0,1-2.49,2.49H65.22a2.49,2.49,0,0,1,0-5h99.56A2.49,2.49,0,0,1,167.27,145.54Zm7.21-2.48H174a2.49,2.49,0,0,0,0,5h.49a2.49,2.49,0,0,0,0-5Z"/></g></g></svg>